<svg width="36" height="29" viewBox="0 0 36 29" fill="none" xmlns="http://www.w3.org/2000/svg">
<path d="M35.066 3.37182C33.7531 3.95373 32.3602 4.33531 30.934 4.50382C32.436 3.6054 33.5601 2.1916 34.097 0.525818C32.685 1.364 31.1401 1.95452 29.529 2.27182C28.4445 1.11738 27.0097 0.35277 25.4466 0.0964086C23.8836 -0.159953 22.2797 0.106244 20.8833 0.853771C19.4868 1.6013 18.3759 2.78843 17.7225 4.23129C17.0691 5.67415 16.9097 7.2922 17.269 8.83482C14.4082 8.6917 11.6096 7.94839 9.05482 6.65318C6.50005 5.35796 4.24631 3.53981 2.44001 1.31682C1.51969 2.9007 1.2377 4.77582 1.65145 6.56033C2.0652 8.34483 3.14359 9.90454 4.66701 10.9218C3.52465 10.8868 2.40737 10.5781 1.40901 10.0218C1.40901 10.0528 1.40901 10.0828 1.40901 10.1128C1.40965 11.7738 1.98457 13.3835 3.03634 14.6691C4.08811 15.9547 5.55203 16.8372 7.18001 17.1668C6.12051 17.4546 5.00936 17.497 3.93101 17.2908C4.38973 18.7212 5.28432 19.9723 6.48952 20.8689C7.69471 21.7654 9.15015 22.2626 10.652 22.2908C7.63176 24.649 3.80194 25.7179 -0.00299072 25.2648C3.28662 27.38 7.11606 28.5024 11.027 28.4978C24.26 28.4978 31.497 17.5358 31.497 8.02782C31.497 7.71582 31.49 7.40582 31.476 7.09782C32.8849 6.08053 34.1006 4.81972 35.066 3.37482V3.37182Z" fill="#646EFB"/>
</svg>
