<svg width="49" height="54" viewBox="0 0 49 54" fill="none" xmlns="http://www.w3.org/2000/svg">
<path d="M47.0963 24.2646C47.5847 24.537 47.9913 24.934 48.2743 25.4146C48.5574 25.8952 48.7065 26.4422 48.7065 26.9992C48.7065 27.5563 48.5574 28.1032 48.2743 28.5839C47.9913 29.0645 47.5847 29.4614 47.0963 29.7339L4.69267 53.3822C4.21313 53.6496 3.67162 53.7876 3.12189 53.7824C2.57217 53.7773 2.03335 53.6292 1.55897 53.3528C1.08458 53.0764 0.69112 52.6814 0.417651 52.207C0.144183 51.7326 0.000220436 51.1952 6.44387e-05 50.6483V3.35169C-5.4462e-05 2.80467 0.143706 2.26713 0.417062 1.79249C0.690418 1.31784 1.08385 0.922611 1.55829 0.646055C2.03272 0.369499 2.57164 0.221246 3.1215 0.216024C3.67136 0.210802 4.21302 0.348794 4.69267 0.616289L47.0963 24.2646Z" fill="#EFEEFF"/>
</svg>
