<svg xmlns="http://www.w3.org/2000/svg" xmlns:xlink="http://www.w3.org/1999/xlink" width="64" height="64" viewBox="0 0 64 64"><defs><linearGradient id="a" x1="32" x2="32" y2="64" gradientUnits="userSpaceOnUse"><stop offset="0" stop-color="#ffce66"/><stop offset="1" stop-color="#a88121"/></linearGradient><linearGradient id="b" x1="17.51" y1="20.59" x2="17.51" y2="30.96" gradientUnits="userSpaceOnUse"><stop offset="0" stop-color="#fada7d"/><stop offset="1" stop-color="#fac93b"/></linearGradient><linearGradient id="c" x1="23.22" y1="20.68" x2="23.22" y2="30.87" xlink:href="#b"/><linearGradient id="d" x1="28.93" y1="20.59" x2="28.93" y2="30.96" xlink:href="#b"/><linearGradient id="e" x1="35.89" y1="20.68" x2="35.89" y2="30.87" xlink:href="#b"/><linearGradient id="f" x1="42.93" y1="20.68" x2="42.93" y2="30.87" xlink:href="#b"/><linearGradient id="g" x1="47.37" y1="20.63" x2="47.37" y2="30.87" xlink:href="#b"/><linearGradient id="h" x1="14.5" y1="33.13" x2="14.5" y2="43.32" xlink:href="#b"/><linearGradient id="i" x1="19.6" y1="33.13" x2="19.6" y2="43.32" xlink:href="#b"/><linearGradient id="j" x1="25.95" y1="33.13" x2="25.95" y2="43.32" xlink:href="#b"/><linearGradient id="k" x1="32.46" y1="33.13" x2="32.46" y2="43.32" xlink:href="#b"/><linearGradient id="l" x1="38.14" y1="33.13" x2="38.14" y2="43.32" xlink:href="#b"/><linearGradient id="m" x1="43.86" y1="33.13" x2="43.86" y2="43.32" xlink:href="#b"/><linearGradient id="n" x1="49.52" y1="33.04" x2="49.52" y2="43.41" xlink:href="#b"/><linearGradient id="o" x1="29.75" y1="48.49" x2="29.75" y2="50.26" xlink:href="#b"/><linearGradient id="p" x1="30.05" y1="50.61" x2="30.05" y2="53.44" xlink:href="#b"/><linearGradient id="q" x1="32" y1="50.61" x2="32" y2="54.15" xlink:href="#b"/><linearGradient id="r" x1="32" y1="48.49" x2="32" y2="50.26" xlink:href="#b"/><linearGradient id="s" x1="33.96" y1="50.61" x2="33.96" y2="53.44" xlink:href="#b"/><linearGradient id="t" x1="34.26" y1="48.49" x2="34.26" y2="50.26" xlink:href="#b"/><linearGradient id="u" y1="61.03" x2="32" y2="2.97" xlink:href="#a"/></defs><title>rewards</title><path d="M56.81,13,40.24,3.44,36.19,1.12a8.41,8.41,0,0,0-8.38,0L7.19,13A8.31,8.31,0,0,0,3,20.16V43.84a8.33,8.33,0,0,0,4.19,7.21L27.53,62.72l.28.16a8.41,8.41,0,0,0,8.38,0L56.81,51.05A8.31,8.31,0,0,0,61,43.85V20.16A8.31,8.31,0,0,0,56.81,13Z" fill="url(#a)"/><path d="M36.91,21.87l1.2-1.19,1.07,1.2,1.21-1.2L45,22.53l.94-.94.65.2,2.32-1.16V33.31L52,36.8l0,5.76-.63,1.56L38.9,56.51l-4.8,2.76a4.16,4.16,0,0,1-3.21.4,4.83,4.83,0,0,1-.95-.38l0,0-.67-.39,0,0L16,51.27,9.3,47.44a4.13,4.13,0,0,1-2.1-3.57V29.26L15.56,21l1.32-.36,2.87,1.07,1-1,4.79,1.71,1.23-1.22,3.91.71,1.2-1.2,1.72,1.47,1.48-1.47Z" opacity="0.16"/><path d="M18,27.41h2v2.7A1.67,1.67,0,0,1,18.14,32H16.88A1.68,1.68,0,0,1,15,30.11V23.52a1.68,1.68,0,0,1,1.91-1.89h1.23A1.67,1.67,0,0,1,20,23.52v2.39H18V23.74a.32.32,0,0,0-.37-.36h-.23a.32.32,0,0,0-.37.36v6.15a.32.32,0,0,0,.37.36h.26a.32.32,0,0,0,.37-.36Zm6.8-.32a1.2,1.2,0,0,1,.89,1.31v3.51H23.66V28.42a.32.32,0,0,0-.37-.37h-.51v3.86H20.73V21.72h3.06a1.68,1.68,0,0,1,1.91,1.89v2A1.42,1.42,0,0,1,24.82,27.09Zm-1.17-3.23a.33.33,0,0,0-.37-.37h-.5v2.83h.5a.33.33,0,0,0,.37-.36Zm7.85,6.25A1.68,1.68,0,0,1,29.59,32H28.27a1.68,1.68,0,0,1-1.9-1.89V23.52a1.68,1.68,0,0,1,1.9-1.89h1.32a1.68,1.68,0,0,1,1.91,1.89Zm-2.05-6.37a.32.32,0,0,0-.37-.36h-.29a.32.32,0,0,0-.37.36v6.15a.32.32,0,0,0,.37.36h.29a.32.32,0,0,0,.37-.36Zm3.66,8.17L31.86,20.68l2.08,1,.53,5.43.59-5.43H37l.59,5.42.53-5.42,1.81-1L38.68,31.91H36.42l-.53-4.63-.52,4.63Zm7.28,0V21.72h2.89a1.94,1.94,0,0,1,2.2,2.18v5.83a1.94,1.94,0,0,1-2.2,2.18Zm2-8.45v6.7h.41a.5.5,0,0,0,.58-.56V24a.51.51,0,0,0-.58-.57Zm6.42-1.79V31.91h-2V24.05h-1V22.64a1.76,1.76,0,0,0,.74-.21,2,2,0,0,0,.56-.52l.18-.24ZM16.1,39.54A1.19,1.19,0,0,1,17,40.85v3.51h-2V40.87a.33.33,0,0,0-.36-.37h-.52v3.86H12V34.17h3.06A1.68,1.68,0,0,1,17,36.06v2A1.41,1.41,0,0,1,16.1,39.54Zm-1.17-3.23a.32.32,0,0,0-.37-.36h-.5v2.82h.5a.32.32,0,0,0,.37-.36Zm2.75-2.14h3.81V36H19.73v2.29h1.69V40.1H19.73v2.44h1.79v1.82H17.68Zm5.48,10.19L21.92,34.17H24l.52,5.43.59-5.43H27l.59,5.42.53-5.42H30L28.73,44.36H26.47L26,39.73l-.53,4.63Zm10.7-10.19,1.35,10.19h-2L33,42.88H31.72l-.15,1.48H29.71l1.35-10.19Zm-1.5,2.47-.45,4.46h.92Zm7.37,2.9a1.2,1.2,0,0,1,.9,1.31v3.51H38.57V40.87a.33.33,0,0,0-.36-.37H37.7v3.86H35.65V34.17h3.06a1.67,1.67,0,0,1,1.9,1.89v2A1.41,1.41,0,0,1,39.73,39.54Zm-1.17-3.23a.32.32,0,0,0-.37-.36H37.7v2.82h.49a.32.32,0,0,0,.37-.36Zm2.76,8V34.17H44.2a1.94,1.94,0,0,1,2.2,2.18v5.83a1.94,1.94,0,0,1-2.2,2.18Zm2-8.44v6.7h.41a.5.5,0,0,0,.57-.57V36.48a.5.5,0,0,0-.57-.56Zm7.81,3.16a1.69,1.69,0,0,1,.82,1.6v1.88a1.68,1.68,0,0,1-1.91,1.89H49A1.68,1.68,0,0,1,47,42.56V40.39h2v2a.32.32,0,0,0,.37.36h.19a.32.32,0,0,0,.36-.36V41.14a.74.74,0,0,0-.35-.65l-1.76-1.3a1.94,1.94,0,0,1-.64-.69,2,2,0,0,1-.18-.91V36A1.68,1.68,0,0,1,49,34.08h1.11A1.68,1.68,0,0,1,52,36v1.87H50V36.16a.32.32,0,0,0-.37-.36h-.16a.32.32,0,0,0-.36.36v1a.74.74,0,0,0,.35.66Z" fill="#916f1d"/><path d="M18,26.37h2v2.7A1.67,1.67,0,0,1,18.14,31H16.88A1.68,1.68,0,0,1,15,29.07V22.48a1.68,1.68,0,0,1,1.91-1.89h1.23A1.67,1.67,0,0,1,20,22.48v2.39H18V22.7a.32.32,0,0,0-.37-.36h-.23a.32.32,0,0,0-.37.36v6.15a.32.32,0,0,0,.37.36h.26a.32.32,0,0,0,.37-.36Z" fill="url(#b)"/><path d="M24.82,26.05a1.42,1.42,0,0,0,.88-1.51v-2a1.68,1.68,0,0,0-1.91-1.89H20.73V30.87h2.05V27h.51a.32.32,0,0,1,.37.37v3.49h2.05V27.36A1.2,1.2,0,0,0,24.82,26.05Zm-1.17-1.13a.33.33,0,0,1-.37.36h-.5V22.45h.5a.33.33,0,0,1,.37.37Z" fill="url(#c)"/><path d="M29.59,20.59H28.27a1.68,1.68,0,0,0-1.9,1.89v6.59A1.68,1.68,0,0,0,28.27,31h1.32a1.68,1.68,0,0,0,1.91-1.89V22.48A1.68,1.68,0,0,0,29.59,20.59Zm-.14,8.26a.32.32,0,0,1-.37.36h-.29a.32.32,0,0,1-.37-.36V22.7a.32.32,0,0,1,.37-.36h.29a.32.32,0,0,1,.37.36Z" fill="url(#d)"/><polygon points="33.11 30.87 31.86 20.68 33.95 20.68 34.47 26.11 35.06 20.68 36.99 20.68 37.58 26.09 38.11 20.68 39.92 20.68 38.68 30.87 36.42 30.87 35.9 26.24 35.37 30.87 33.11 30.87" fill="url(#e)"/><path d="M43.28,20.68H40.39V30.87h2.89a1.94,1.94,0,0,0,2.2-2.18V22.86A1.94,1.94,0,0,0,43.28,20.68Zm.15,7.88a.5.5,0,0,1-.58.56h-.41v-6.7h.41a.51.51,0,0,1,.58.57Z" fill="url(#f)"/><path d="M48.86,20.63V30.87h-2V23h-1V21.59a1.63,1.63,0,0,0,.74-.2,2,2,0,0,0,.56-.52l.18-.24Z" fill="url(#g)"/><path d="M16.1,38.5A1.41,1.41,0,0,0,17,37V35a1.68,1.68,0,0,0-1.91-1.89H12V43.32h2.05V39.46h.52a.33.33,0,0,1,.36.37v3.49h2V39.81A1.19,1.19,0,0,0,16.1,38.5Zm-1.17-1.13a.32.32,0,0,1-.37.36h-.5V34.91h.5a.32.32,0,0,1,.37.36Z" fill="url(#h)"/><polygon points="17.68 33.13 21.49 33.13 21.49 34.95 19.73 34.95 19.73 37.24 21.42 37.24 21.42 39.06 19.73 39.06 19.73 41.5 21.52 41.5 21.52 43.32 17.68 43.32 17.68 33.13" fill="url(#i)"/><polygon points="23.16 43.32 21.92 33.13 24 33.13 24.52 38.56 25.11 33.13 27.04 33.13 27.63 38.55 28.16 33.13 29.98 33.13 28.73 43.32 26.47 43.32 25.95 38.69 25.42 43.32 23.16 43.32" fill="url(#j)"/><path d="M33.86,33.13h-2.8L29.71,43.32h1.86l.15-1.48H33l.16,1.48h2Zm-1.95,6.93.45-4.46.47,4.46Z" fill="url(#k)"/><path d="M39.73,38.5A1.41,1.41,0,0,0,40.61,37V35a1.67,1.67,0,0,0-1.9-1.89H35.65V43.32H37.7V39.46h.51a.33.33,0,0,1,.36.37v3.49h2.06V39.81A1.2,1.2,0,0,0,39.73,38.5Zm-1.17-1.13a.32.32,0,0,1-.37.36H37.7V34.91h.49a.32.32,0,0,1,.37.36Z" fill="url(#l)"/><path d="M44.2,33.13H41.32V43.32H44.2a1.94,1.94,0,0,0,2.2-2.18V35.31A1.94,1.94,0,0,0,44.2,33.13ZM44.35,41a.5.5,0,0,1-.57.57h-.41v-6.7h.41a.5.5,0,0,1,.57.56Z" fill="url(#m)"/><path d="M51.18,38a1.69,1.69,0,0,1,.82,1.6v1.88a1.68,1.68,0,0,1-1.91,1.89H49A1.68,1.68,0,0,1,47,41.52V39.35h2v2a.32.32,0,0,0,.37.36h.19a.32.32,0,0,0,.36-.36V40.1a.74.74,0,0,0-.35-.65l-1.76-1.3a1.94,1.94,0,0,1-.64-.69,2,2,0,0,1-.18-.91V34.93A1.68,1.68,0,0,1,49,33h1.11A1.68,1.68,0,0,1,52,34.93V36.8H50V35.12a.32.32,0,0,0-.37-.36h-.16a.32.32,0,0,0-.36.36v1a.74.74,0,0,0,.35.66Z" fill="url(#n)"/><path d="M35.2,50.26h0l-1-1.77h-.89v0h0v0h0v0h0v0h0v0h0v0h0v0h0v0h0v0h0v0h0v0h0v0h0v0h0v0h0v0h0v0h0v0h0v0h0v0h0v0h0v0h0v0h0v0h0v0h0v0h0v0h0v0h0v0h0v0h0v0h0v0h0v0h0v0h0v0h0v0h0v0h0l.66,1.5-1.16,2.36.75-1.74h0v0h0v0h0v0h0v0h0v0h0v0h0v0h0v0h0v0h0v0h0v0h0v0h0v0h0v0h0v0h0v0h0v0h0v0h0v0h0v0h0v0h0v0h0v0h0v0h0v0h0v0h0v0h0v0h0v0h0v0h0v0h0v0h0v0h0v0h0v0h0v0h0v0h0v0h0v0h0v0h0v0h0v0h0v0h0v0h0v0h0v0h0v0h0v0h0v0h0v0h0l-.77-1.77H31.23l-.77,1.77h0v0h0v0h0v0h0v0h0v0h0v0h0v0h0v0h0v0h0v0h0v0h0v0h0v0h0v0h0v0h0v0h0v0h0v0h0v0h0v0h0v0h0v0h0v0h0v0h0v0h0v0h0v0h0v0h0v0h0v0h0v0h0v0h0v0h0v0h0v0h0v0h0v0h0v0h0v0h0v0h0v0h0v0h0v0h0v0h0v0h0v0h0v0h0v0h0v0h0v0h0l.76,1.74L30,50.86l.66-1.5h0v0h0v0h0v0h0v0h0v0h0v0h0v0h0v0h0v0h0v0h0v0h0v0h0v0h0v0h0v0h0v0h0v0h0v0h0v0h0v0h0v0h0v0h0v0h0v0h0v0h0v0h0v0h0v0h0v0h0v0h0v0h0v0h0v0h0v0h0v0h0v0h-.89l-1,1.77h0v0h0v0h0v0h0v0h0v0h0v0h0v0h0v0h0v0h0v0h0v0h0v0h0v0h0v0h0l0,0h0l0,0h0l0,0h0l0,0h0l0,0h0l0,0h0l0,0h0l0,0h0l0,0h0l0,0h0l0,0h0l0,0h0l0,0h0l0,0h0l2.43,2.82a0,0,0,0,0,.06,0h0v0h0L32,55S32,55,32,55l.68-1.58h0s0,.07.05,0l2.44-2.82h0l0,0h0l0,0h0l0,0h0l0,0h0l0,0h0l0,0h0l0,0h0l0,0h0l0,0h0l0,0h0l0,0h0l0,0h0l0,0h0l0,0h0v0h0v0h0v0h0v0h0v0h0v0h0v0h0v0h0v0h0v0h0v0h0v0h0v0h0Z" fill="#916f1d"/><polygon points="30.7 48.49 29.93 50.26 28.8 50.26 29.81 48.49 30.7 48.49" fill="url(#o)"/><path d="M29.92,50.61l1.37,2.79s0,.06-.06,0L28.8,50.61Z" fill="url(#p)"/><path d="M33.56,50.61,32,54.13s-.06,0-.07,0l-1.52-3.52Z" fill="url(#q)"/><polygon points="33.55 50.26 30.46 50.26 31.23 48.49 32.78 48.49 33.55 50.26" fill="url(#r)"/><path d="M34.09,50.61h1.12l-2.44,2.82s-.07,0-.05,0Z" fill="url(#s)"/><polygon points="35.21 50.26 34.08 50.26 33.31 48.49 34.2 48.49 35.21 50.26" fill="url(#t)"/><path d="M55.76,16,37.94,5.73,34.1,3.53a4.18,4.18,0,0,0-4.19,0L8.25,16a4.15,4.15,0,0,0-2.1,3.6V44.43A4.16,4.16,0,0,0,8.25,48L18.9,54.15,23.79,57l6.06,3.47.06,0a4.23,4.23,0,0,0,4.19,0L55.76,48a4.15,4.15,0,0,0,2.09-3.61V19.56A4.14,4.14,0,0,0,55.76,16Zm1.05,27.88a4.14,4.14,0,0,1-2.1,3.6L34.1,59.27a4.22,4.22,0,0,1-3.43.34h0a4.17,4.17,0,0,1-.75-.33l-1.43-.82L24.55,56.2l-2.79-1.6L16,51.27,9.29,47.44A4.14,4.14,0,0,1,7.2,43.87V20.17a4.15,4.15,0,0,1,2.09-3.6L29.91,4.73a4.23,4.23,0,0,1,4.19,0L54.71,16.57a4.14,4.14,0,0,1,2.1,3.6Z" fill="url(#u)"/></svg>