<svg version="1.1" id="Layer_1" xmlns="http://www.w3.org/2000/svg" x="0" y="0" viewBox="0 0 64 64" xml:space="preserve"><style></style><switch><g><linearGradient id="SVGID_1_" gradientUnits="userSpaceOnUse" x1="32" y1="2.971" x2="32" y2="61.029"><stop offset="0" stop-color="#7435dd"/><stop offset="1" stop-color="#4a228d"/></linearGradient><path d="M55.8 16L37.9 5.7l-3.8-2.2c-1.3-.7-2.9-.7-4.2 0L8.2 16c-1.3.7-2.1 2.1-2.1 3.6v24.9c0 1.5.8 2.9 2.1 3.6l21.6 12.4h.1c1.3.7 2.9.7 4.2 0L55.8 48c1.3-.7 2.1-2.1 2.1-3.6V19.6c-.1-1.5-.8-2.9-2.1-3.6z" fill="url(#SVGID_1_)"/><linearGradient id="SVGID_2_" gradientUnits="userSpaceOnUse" x1="32" y1="4.171" x2="32" y2="59.826"><stop offset="0" stop-color="#295afa"/><stop offset="1" stop-color="#124091"/></linearGradient><path d="M54.7 16.6L34.1 4.7c-1.3-.7-2.9-.7-4.2 0L9.3 16.6c-1.3.7-2.1 2.1-2.1 3.6v23.7c0 1.5.8 2.8 2.1 3.6l6.7 3.8 8.2 4.7.4.2 3.9 2.2 1.4.8c1.3.7 2.9.7 4.2 0l20.6-11.8c1.3-.7 2.1-2.1 2.1-3.6V20.2c0-1.5-.8-2.9-2.1-3.6z" fill="url(#SVGID_2_)"/><linearGradient id="SVGID_3_" gradientUnits="userSpaceOnUse" x1="32" y1="4.171" x2="32" y2="59.826"><stop offset="0" stop-color="#7435dd"/><stop offset="1" stop-color="#4a228d"/></linearGradient><path d="M54.7 16.6L34.1 4.7c-1.3-.7-2.9-.7-4.2 0L9.3 16.6c-1.3.7-2.1 2.1-2.1 3.6v23.7c0 1.5.8 2.8 2.1 3.6l6.7 3.8 8.2 4.7.4.2 3.9 2.2 1.4.8c1.3.7 2.9.7 4.2 0l20.6-11.8c1.3-.7 2.1-2.1 2.1-3.6V20.2c0-1.5-.8-2.9-2.1-3.6zm0 0L34.1 4.7c-1.3-.7-2.9-.7-4.2 0L9.3 16.6c-1.3.7-2.1 2.1-2.1 3.6v23.7c0 1.5.8 2.8 2.1 3.6l6.7 3.8 8.2 4.7.4.2 3.9 2.2 1.4.8c1.3.7 2.9.7 4.2 0l20.6-11.8c1.3-.7 2.1-2.1 2.1-3.6V20.2c0-1.5-.8-2.9-2.1-3.6z" fill="url(#SVGID_3_)"/><linearGradient id="SVGID_4_" gradientUnits="userSpaceOnUse" x1="32" y1="0" x2="32" y2="64"><stop offset="0" stop-color="#7435dd"/><stop offset="1" stop-color="#4a228d"/></linearGradient><path d="M56.8 13L40.2 3.4l-4-2.3c-2.6-1.5-5.8-1.5-8.4 0L7.2 13C4.6 14.4 3 17.2 3 20.2v23.7c0 1.1.2 2.1.6 3.1.7 1.7 1.9 3.2 3.6 4.1L21 59l.4.2 6.1 3.5.3.2c2.6 1.5 5.8 1.5 8.4 0L56.8 51c2.6-1.5 4.2-4.2 4.2-7.2V20.2c0-3-1.6-5.8-4.2-7.2zm1 31.4c0 1.5-.8 2.9-2.1 3.6L34.1 60.5c-1.3.7-2.9.7-4.2 0h-.1l-6-3.5-.4-.2L8.2 48c-1.3-.7-2.1-2.1-2.1-3.6V19.6c0-1.5.8-2.9 2.1-3.6L29.9 3.5c1.3-.7 2.9-.7 4.2 0l3.8 2.2L55.8 16c1.3.7 2.1 2.1 2.1 3.6v24.8z" fill="url(#SVGID_4_)"/><linearGradient id="SVGID_5_" gradientUnits="userSpaceOnUse" x1="32" y1="4.173" x2="32" y2="59.827"><stop offset="0" stop-color="#7435dd"/><stop offset="1" stop-color="#4a228d"/></linearGradient><path d="M54.7 16.6L34.1 4.7c-1.3-.7-2.9-.7-4.2 0L9.3 16.6c-1.3.7-2.1 2.1-2.1 3.6v23.7c0 1.5.8 2.8 2.1 3.6l6.7 3.8 8.2 4.7.4.2 3.9 2.2 1.4.8c1.3.7 2.9.7 4.2 0l20.6-11.8c1.3-.7 2.1-2.1 2.1-3.6V20.2c0-1.5-.8-2.9-2.1-3.6z" fill="url(#SVGID_5_)"/><linearGradient id="SVGID_6_" gradientUnits="userSpaceOnUse" x1="32" y1="61.025" x2="32" y2="2.967"><stop offset="0" stop-color="#7435dd"/><stop offset="1" stop-color="#4a228d"/></linearGradient><path d="M55.8 16L37.9 5.7l-3.8-2.2c-1.3-.7-2.9-.7-4.2 0L8.2 16c-1.3.7-2.1 2.1-2.1 3.6v24.9c0 1.5.8 2.9 2.1 3.6l15.1 8.7.4.2 6.1 3.5h.1c1.3.7 2.9.7 4.2 0L55.8 48c1.3-.7 2.1-2.1 2.1-3.6V19.6c-.1-1.5-.8-2.9-2.1-3.6zm1 27.8c0 1.5-.8 2.9-2.1 3.6L34.1 59.3c-1.3.7-2.9.7-4.2 0l-1.4-.8-3.9-2.2-.4-.2-8.2-4.8-6.7-3.8c-1.3-.7-2.1-2.1-2.1-3.6V20.2c0-1.5.8-2.9 2.1-3.6L29.9 4.7c1.3-.7 2.9-.7 4.2 0l20.6 11.8c1.3.7 2.1 2.1 2.1 3.6v23.7z" fill="url(#SVGID_6_)"/><path d="M37.7 43.5L24.8 56.3l-8.8-5-6.7-3.8c-1.3-.7-2.1-2.1-2.1-3.6v-.5l12.2-12.2v8.1l3.3 3.6" opacity=".16"/><path d="M39.8 32.6v3.1c2.8-.5 4.7-1.5 4.7-2.7v-2.1c-1.1.9-2.8 1.4-4.7 1.7zm-3.1-4.3c1.5.7 2.5 1.6 3 2.8 2.9-.5 4.9-1.6 4.9-2.7v-2.1c-1.8 1.2-4.8 1.9-7.9 2zm-1.6-7.7c-5.2 0-9.4 1.4-9.4 3.1 0 1.7 4.2 3.1 9.4 3.1s9.4-1.4 9.4-3.1c.1-1.7-4.2-3.1-9.4-3.1zm-6.2 21.8c-3.7 0-7.4-.7-9.4-2.1v2.1c0 1.7 4.2 3.1 9.4 3.1 4.1 0 7.5-.9 8.8-2l.1-.1c.3-.3.5-.6.5-.9v-2.1c-2.1 1.3-5.8 2-9.4 2zm0-4.7c-3.7 0-7.4-.9-9.4-2.5v2.5c0 1.7 4.2 3.1 9.4 3.1s9.4-1.4 9.4-3.1v-2.5c-2.1 1.7-5.8 2.5-9.4 2.5zm0-9.3c-5.2 0-9.4 1.7-9.4 3.9s4.2 3.9 9.4 3.9 9.4-1.7 9.4-3.9-4.2-3.9-9.4-3.9z" fill="#351965"/><linearGradient id="SVGID_7_" gradientUnits="userSpaceOnUse" x1="32" y1="19.517" x2="32" y2="44.483"><stop offset="0" stop-color="#bfa3ef"/><stop offset="1" stop-color="#996ce6"/></linearGradient><path d="M39.8 31.6v3.1c2.8-.5 4.7-1.5 4.7-2.7v-2.1c-1.1.8-2.8 1.4-4.7 1.7zm-3.1-4.3c1.5.7 2.5 1.6 3 2.8 2.9-.5 4.9-1.6 4.9-2.7v-2.1c-1.8 1.2-4.8 1.8-7.9 2zm-1.6-7.8c-5.2 0-9.4 1.4-9.4 3.1 0 1.7 4.2 3.1 9.4 3.1s9.4-1.4 9.4-3.1c.1-1.7-4.2-3.1-9.4-3.1zm-6.2 21.9c-3.7 0-7.4-.7-9.4-2.1v2.1c0 1.7 4.2 3.1 9.4 3.1 4.1 0 7.5-.9 8.8-2l.1-.1c.3-.3.5-.6.5-.9v-2.1c-2.1 1.3-5.8 2-9.4 2zm0-4.7c-3.7 0-7.4-.9-9.4-2.5v2.5c0 1.7 4.2 3.1 9.4 3.1s9.4-1.4 9.4-3.1v-2.5c-2.1 1.6-5.8 2.5-9.4 2.5zm0-9.4c-5.2 0-9.4 1.7-9.4 3.9s4.2 3.9 9.4 3.9 9.4-1.7 9.4-3.9c0-2.1-4.2-3.9-9.4-3.9z" fill="url(#SVGID_7_)"/></g></switch></svg>