<svg width="37" height="37" viewBox="0 0 37 37" fill="none" xmlns="http://www.w3.org/2000/svg">
<path d="M18.5 3.33463C23.4395 3.33463 24.0253 3.35313 25.9771 3.44254C30.9906 3.67071 33.3324 6.0495 33.5605 11.026C33.65 12.9762 33.6669 13.562 33.6669 18.5015C33.6669 23.4426 33.6484 24.0269 33.5605 25.9771C33.3308 30.949 30.9952 33.3324 25.9771 33.5605C24.0253 33.65 23.4426 33.6685 18.5 33.6685C13.5605 33.6685 12.9747 33.65 11.0245 33.5605C5.99862 33.3308 3.66917 30.9412 3.441 25.9755C3.35158 24.0253 3.33308 23.441 3.33308 18.5C3.33308 13.5605 3.35313 12.9762 3.441 11.0245C3.67071 6.0495 6.00633 3.66917 11.0245 3.441C12.9762 3.35313 13.5605 3.33463 18.5 3.33463ZM18.5 0C13.4757 0 12.8467 0.0215833 10.8734 0.111C4.15479 0.419333 0.420875 4.14708 0.112542 10.8718C0.0215833 12.8467 0 13.4757 0 18.5C0 23.5243 0.0215833 24.1548 0.111 26.1282C0.419333 32.8467 4.14708 36.5807 10.8718 36.889C12.8467 36.9784 13.4757 37 18.5 37C23.5243 37 24.1548 36.9784 26.1282 36.889C32.8406 36.5807 36.5837 32.8529 36.8875 26.1282C36.9784 24.1548 37 23.5243 37 18.5C37 13.4757 36.9784 12.8467 36.889 10.8734C36.5868 4.16096 32.8545 0.420875 26.1297 0.112542C24.1548 0.0215833 23.5243 0 18.5 0V0ZM18.5 9.00025C13.2537 9.00025 9.00025 13.2537 9.00025 18.5C9.00025 23.7463 13.2537 28.0013 18.5 28.0013C23.7463 28.0013 27.9998 23.7478 27.9998 18.5C27.9998 13.2537 23.7463 9.00025 18.5 9.00025ZM18.5 24.6667C15.0945 24.6667 12.3333 21.9071 12.3333 18.5C12.3333 15.0945 15.0945 12.3333 18.5 12.3333C21.9055 12.3333 24.6667 15.0945 24.6667 18.5C24.6667 21.9071 21.9055 24.6667 18.5 24.6667ZM28.3759 6.40563C27.1488 6.40563 26.1544 7.4 26.1544 8.62562C26.1544 9.85125 27.1488 10.8456 28.3759 10.8456C29.6015 10.8456 30.5944 9.85125 30.5944 8.62562C30.5944 7.4 29.6015 6.40563 28.3759 6.40563Z" fill="#646EFB"/>
</svg>
